<svg width="44" height="41" viewBox="0 0 44 41" fill="none" xmlns="http://www.w3.org/2000/svg">
<path d="M40.7204 17.3573C41.4633 17.3573 42.0975 17.6398 42.6232 18.2048C43.1488 18.7698 43.4116 19.4516 43.4116 20.2501C43.4116 21.0487 43.1488 21.7305 42.6232 22.2955C42.0975 22.8605 41.4633 23.143 40.7204 23.143H40.405L37.9871 38.1045C37.875 38.7976 37.5666 39.3701 37.062 39.8221C36.5574 40.2741 35.9827 40.5001 35.338 40.5001H8.42572C7.78095 40.5001 7.20626 40.2741 6.70166 39.8221C6.19705 39.3701 5.88868 38.7976 5.77655 38.1045L3.35865 23.143H3.04327C2.30038 23.143 1.66612 22.8605 1.1405 22.2955C0.614866 21.7305 0.352051 21.0487 0.352051 20.2501C0.352051 19.4516 0.614866 18.7698 1.1405 18.2048C1.66612 17.6398 2.30038 17.3573 3.04327 17.3573H40.7204ZM10.5493 35.4376C10.9137 35.4075 11.2186 35.238 11.4639 34.9291C11.7092 34.6202 11.8178 34.2699 11.7898 33.8782L11.1169 24.4764C11.0889 24.0847 10.9312 23.757 10.6439 23.4933C10.3565 23.2296 10.0306 23.1128 9.66621 23.143C9.30177 23.1731 8.99691 23.3426 8.75161 23.6515C8.50632 23.9604 8.39769 24.3107 8.42572 24.7024L9.09853 34.1042C9.12656 34.4809 9.27023 34.7973 9.52954 35.0534C9.78885 35.3096 10.0937 35.4376 10.4441 35.4376H10.5493ZM19.1906 33.9912V24.5894C19.1906 24.1977 19.0575 23.8587 18.7911 23.5724C18.5248 23.2861 18.2094 23.143 17.845 23.143C17.4806 23.143 17.1652 23.2861 16.8989 23.5724C16.6326 23.8587 16.4994 24.1977 16.4994 24.5894V33.9912C16.4994 34.3829 16.6326 34.7219 16.8989 35.0082C17.1652 35.2945 17.4806 35.4376 17.845 35.4376C18.2094 35.4376 18.5248 35.2945 18.7911 35.0082C19.0575 34.7219 19.1906 34.3829 19.1906 33.9912ZM27.2643 33.9912V24.5894C27.2643 24.1977 27.1311 23.8587 26.8648 23.5724C26.5985 23.2861 26.2831 23.143 25.9187 23.143C25.5542 23.143 25.2389 23.2861 24.9725 23.5724C24.7062 23.8587 24.5731 24.1977 24.5731 24.5894V33.9912C24.5731 34.3829 24.7062 34.7219 24.9725 35.0082C25.2389 35.2945 25.5542 35.4376 25.9187 35.4376C26.2831 35.4376 26.5985 35.2945 26.8648 35.0082C27.1311 34.7219 27.2643 34.3829 27.2643 33.9912ZM34.6651 34.1042L35.338 24.7024C35.366 24.3107 35.2574 23.9604 35.0121 23.6515C34.7668 23.3426 34.4619 23.1731 34.0975 23.143C33.733 23.1128 33.4071 23.2296 33.1198 23.4933C32.8325 23.757 32.6748 24.0847 32.6467 24.4764L31.9739 33.8782C31.9459 34.2699 32.0545 34.6202 32.2998 34.9291C32.5451 35.238 32.85 35.4075 33.2144 35.4376H33.3195C33.67 35.4376 33.9748 35.3096 34.2341 35.0534C34.4934 34.7973 34.6371 34.4809 34.6651 34.1042ZM10.36 6.59945L8.4047 15.9108H5.62937L7.75291 5.94404C8.01923 4.61815 8.64298 3.53709 9.62416 2.70088C10.6053 1.86466 11.7267 1.44655 12.9882 1.44655H16.4994C16.4994 1.05481 16.6326 0.715803 16.8989 0.429531C17.1652 0.143258 17.4806 0.00012207 17.845 0.00012207H25.9187C26.2831 0.00012207 26.5985 0.143258 26.8648 0.429531C27.1311 0.715803 27.2643 1.05481 27.2643 1.44655H30.7755C32.037 1.44655 33.1583 1.86466 34.1395 2.70088C35.1207 3.53709 35.7444 4.61815 36.0108 5.94404L38.1343 15.9108H35.359L33.4036 6.59945C33.2495 5.93651 32.9306 5.39409 32.447 4.97222C31.9634 4.55035 31.4062 4.33941 30.7755 4.33941H27.2643C27.2643 4.73115 27.1311 5.07016 26.8648 5.35643C26.5985 5.6427 26.2831 5.78584 25.9187 5.78584H17.845C17.4806 5.78584 17.1652 5.6427 16.8989 5.35643C16.6326 5.07016 16.4994 4.73115 16.4994 4.33941H12.9882C12.3574 4.33941 11.8003 4.55035 11.3167 4.97222C10.8331 5.39409 10.5142 5.93651 10.36 6.59945Z" fill="#FAFAFA"/>
</svg>
