<svg width="45" height="45" viewBox="0 0 45 45" fill="none" xmlns="http://www.w3.org/2000/svg">
<path d="M12.2024 31.0881C11.4489 31.0881 10.6954 30.8998 10.0047 30.5023C8.60239 29.7073 7.76516 28.2845 7.76516 26.6946V19.2259C7.76516 18.682 7.40934 17.7616 6.96981 17.2386L1.69535 11.6946C0.711628 10.7322 0 9.05862 0 7.78246V4.5398C0 2.00841 1.92554 0 4.39531 0H23.0233C25.4512 0 27.4186 1.96655 27.4186 4.39333V7.4896C27.4186 9.1214 26.4767 10.9205 25.5558 11.841L19.4233 17.2594C18.9419 17.6569 18.5442 18.6194 18.5442 19.3307V25.3975C18.5442 26.841 17.6651 28.4521 16.514 29.1425L14.5883 30.3975C13.8348 30.8577 13.0186 31.0881 12.2024 31.0881ZM4.39531 3.15902C3.68368 3.15902 3.13953 3.76576 3.13953 4.56074V7.8034C3.13953 8.15905 3.49537 9.05864 3.95584 9.51889L9.35575 15.1883C10.1511 16.1716 10.9255 17.7825 10.9255 19.2259V26.6946C10.9255 27.3222 11.3233 27.6362 11.5745 27.7617C11.9094 27.95 12.4534 28.0546 12.9139 27.7617L14.8604 26.5063C15.1116 26.3598 15.4046 25.7743 15.4046 25.4186V19.3514C15.4046 17.6988 16.2209 15.8787 17.3721 14.8954L23.4 9.56071C23.7767 9.18414 24.2791 8.15905 24.2791 7.4896V4.39333C24.2791 3.70296 23.714 3.13808 23.0233 3.13808H4.39531V3.15902Z" fill="#FAFAFA"/>
<path d="M28.7791 45.0002H16.2209C4.85581 45.0002 0 40.1467 0 28.7868V22.5106C0 21.6529 0.711628 20.9416 1.56977 20.9416C2.42791 20.9416 3.13953 21.6529 3.13953 22.5106V28.7868C3.13953 38.4312 6.57209 41.8622 16.2209 41.8622H28.7791C38.4279 41.8622 41.8605 38.4312 41.8605 28.7868V16.2345C41.8605 10.1675 40.4372 6.65283 37.2349 4.83275C36.9 4.64446 35.7907 4.14241 32.6093 3.64032C31.7512 3.5148 31.1651 2.69885 31.3116 1.84111C31.4581 0.983368 32.2744 0.397613 33.1116 0.544057C35.8535 0.983388 37.7163 1.48546 38.7837 2.09216C43.0116 4.49802 45 8.99596 45 16.2345V28.7868C45 40.1467 40.1442 45.0002 28.7791 45.0002Z" fill="#FAFAFA"/>
<path d="M35.0578 26.1709H24.5927C23.7346 26.1709 23.0229 25.4596 23.0229 24.6019C23.0229 23.7441 23.7346 23.0328 24.5927 23.0328H35.0578C35.916 23.0328 36.6276 23.7441 36.6276 24.6019C36.6276 25.4596 35.916 26.1709 35.0578 26.1709Z" fill="#FAFAFA"/>
<path d="M35.0583 34.5396H20.4072C19.549 34.5396 18.8374 33.8283 18.8374 32.9705C18.8374 32.1128 19.549 31.4015 20.4072 31.4015H35.0583C35.9165 31.4015 36.6281 32.1128 36.6281 32.9705C36.6281 33.8283 35.9165 34.5396 35.0583 34.5396Z" fill="#FAFAFA"/>
</svg>
