<svg width="141" height="48" viewBox="0 0 141 48" fill="none" xmlns="http://www.w3.org/2000/svg">
<g clip-path="url(#clip0_202_964)">
<mask id="mask0_202_964" style="mask-type:alpha" maskUnits="userSpaceOnUse" x="2" y="2" width="47" height="45">
<path d="M46.7809 28.0001H29.7697V44.0001H46.7809V28.0001ZM13.8217 4.00012L23.3905 20.0001H4.25293L13.8217 4.00012ZM38.2753 20.0001C40.5311 20.0001 42.6946 19.1573 44.2897 17.657C45.8848 16.1567 46.7809 14.1219 46.7809 12.0001C46.7809 9.87839 45.8848 7.84356 44.2897 6.34327C42.6946 4.84298 40.5311 4.00012 38.2753 4.00012C36.0195 4.00012 33.8561 4.84298 32.2609 6.34327C30.6658 7.84356 29.7697 9.87839 29.7697 12.0001C29.7697 14.1219 30.6658 16.1567 32.2609 17.657C33.8561 19.1573 36.0195 20.0001 38.2753 20.0001Z" fill="white" stroke="white" stroke-width="4" stroke-linejoin="round"/>
<path d="M4.25293 28.0001L21.2641 44.0001M21.2641 28.0001L4.25293 44.0001" stroke="white" stroke-width="4" stroke-linecap="round" stroke-linejoin="round"/>
</mask>
<g mask="url(#mask0_202_964)">
<path d="M0 0.00012207H51.0336V48.0001H0V0.00012207Z" fill="#FAFAFA"/>
</g>
<g clip-path="url(#clip1_202_964)">
<mask id="mask1_202_964" style="mask-type:alpha" maskUnits="userSpaceOnUse" x="2" y="2" width="47" height="45">
<path d="M46.7809 28.0001H29.7697V44.0001H46.7809V28.0001ZM13.8217 4.00012L23.3905 20.0001H4.25293L13.8217 4.00012ZM38.2753 20.0001C40.5311 20.0001 42.6946 19.1573 44.2897 17.657C45.8848 16.1567 46.7809 14.1219 46.7809 12.0001C46.7809 9.87839 45.8848 7.84356 44.2897 6.34327C42.6946 4.84298 40.5311 4.00012 38.2753 4.00012C36.0195 4.00012 33.8561 4.84298 32.2609 6.34327C30.6658 7.84356 29.7697 9.87839 29.7697 12.0001C29.7697 14.1219 30.6658 16.1567 32.2609 17.657C33.8561 19.1573 36.0195 20.0001 38.2753 20.0001Z" fill="white" stroke="white" stroke-width="4" stroke-linejoin="round"/>
</mask>
<g mask="url(#mask1_202_964)">
<path d="M0 0.00012207H51.0336V48.0001H0V0.00012207Z" fill="#0897AB"/>
</g>
</g>
</g>
<path d="M67.0825 25.1601C66.2719 25.1601 65.5145 25.0108 64.8105 24.7121C64.1065 24.4135 63.4879 24.0028 62.9545 23.4801C62.4212 22.9468 61.9999 22.3335 61.6905 21.6401C61.3919 20.9468 61.2425 20.2001 61.2425 19.4001C61.2425 18.6001 61.3919 17.8535 61.6905 17.1601C61.9999 16.4668 62.4212 15.8588 62.9545 15.3361C63.4879 14.8028 64.1065 14.3868 64.8105 14.0881C65.5145 13.7895 66.2719 13.6401 67.0825 13.6401C67.5839 13.6401 68.0692 13.6935 68.5385 13.8001C69.0079 13.9068 69.4399 14.0668 69.8345 14.2801C69.9945 14.3655 70.1119 14.4828 70.1865 14.6321C70.2719 14.7708 70.3145 14.9148 70.3145 15.0641C70.3145 15.3201 70.2292 15.5495 70.0585 15.7521C69.8879 15.9548 69.6692 16.0561 69.4025 16.0561C69.3172 16.0561 69.2265 16.0455 69.1305 16.0241C69.0452 16.0028 68.9599 15.9708 68.8745 15.9281C68.6079 15.8108 68.3252 15.7201 68.0265 15.6561C67.7279 15.5921 67.4132 15.5601 67.0825 15.5601C66.3892 15.5601 65.7545 15.7361 65.1785 16.0881C64.6132 16.4295 64.1599 16.8935 63.8185 17.4801C63.4879 18.0561 63.3225 18.6961 63.3225 19.4001C63.3225 20.0935 63.4879 20.7335 63.8185 21.3201C64.1599 21.9068 64.6132 22.3761 65.1785 22.7281C65.7545 23.0695 66.3892 23.2401 67.0825 23.2401C67.4025 23.2401 67.7545 23.2081 68.1385 23.1441C68.5225 23.0801 68.8372 22.9948 69.0825 22.8881L68.9385 23.3681V20.6321L69.2105 20.8721H67.4345C67.1572 20.8721 66.9225 20.7815 66.7305 20.6001C66.5492 20.4188 66.4585 20.1895 66.4585 19.9121C66.4585 19.6348 66.5492 19.4055 66.7305 19.2241C66.9225 19.0428 67.1572 18.9521 67.4345 18.9521H70.0585C70.3359 18.9521 70.5652 19.0481 70.7465 19.2401C70.9279 19.4215 71.0185 19.6508 71.0185 19.9281V23.3201C71.0185 23.5335 70.9652 23.7095 70.8585 23.8481C70.7625 23.9868 70.6505 24.0988 70.5225 24.1841C70.0319 24.4828 69.4932 24.7228 68.9065 24.9041C68.3305 25.0748 67.7225 25.1601 67.0825 25.1601ZM77.0552 16.3121L73.5992 24.4401C73.5245 24.6428 73.4072 24.8028 73.2472 24.9201C73.0978 25.0268 72.9325 25.0801 72.7512 25.0801C72.4632 25.0801 72.2498 25.0001 72.1112 24.8401C71.9725 24.6801 71.9032 24.4828 71.9032 24.2481C71.9032 24.1521 71.9192 24.0508 71.9512 23.9441L75.9352 14.3761C76.0205 14.1628 76.1485 13.9975 76.3192 13.8801C76.5005 13.7628 76.6925 13.7148 76.8952 13.7361C77.0872 13.7361 77.2632 13.7948 77.4232 13.9121C77.5938 14.0188 77.7165 14.1735 77.7912 14.3761L81.7272 23.7521C81.7805 23.8908 81.8072 24.0188 81.8072 24.1361C81.8072 24.4241 81.7112 24.6535 81.5192 24.8241C81.3378 24.9948 81.1352 25.0801 80.9112 25.0801C80.7192 25.0801 80.5432 25.0215 80.3832 24.9041C80.2338 24.7868 80.1165 24.6268 80.0312 24.4241L76.5912 16.4081L77.0552 16.3121ZM74.0952 22.4881L74.9752 20.6481H79.2952L79.5992 22.4881H74.0952ZM84.1699 13.7841C84.3192 13.7841 84.4739 13.8268 84.6339 13.9121C84.8046 13.9868 84.9326 14.0881 85.0179 14.2161L88.9059 20.2001L88.1059 20.1681L92.0899 14.2161C92.2926 13.9281 92.5539 13.7841 92.8739 13.7841C93.1299 13.7841 93.3592 13.8748 93.5619 14.0561C93.7646 14.2375 93.8659 14.4721 93.8659 14.7601V24.0241C93.8659 24.3015 93.7752 24.5361 93.5939 24.7281C93.4126 24.9095 93.1726 25.0001 92.8739 25.0001C92.5752 25.0001 92.3299 24.9095 92.1379 24.7281C91.9566 24.5361 91.8659 24.3015 91.8659 24.0241V16.4881L92.4899 16.6321L89.2259 21.6081C89.1299 21.7255 89.0072 21.8268 88.8579 21.9121C88.7192 21.9975 88.5752 22.0348 88.4259 22.0241C88.2872 22.0348 88.1432 21.9975 87.9939 21.9121C87.8552 21.8268 87.7379 21.7255 87.6419 21.6081L84.5859 16.7761L85.0019 15.9281V24.0241C85.0019 24.3015 84.9166 24.5361 84.7459 24.7281C84.5752 24.9095 84.3512 25.0001 84.0739 25.0001C83.8072 25.0001 83.5886 24.9095 83.4179 24.7281C83.2472 24.5361 83.1619 24.3015 83.1619 24.0241V14.7601C83.1619 14.4935 83.2579 14.2641 83.4499 14.0721C83.6526 13.8801 83.8926 13.7841 84.1699 13.7841ZM97.2473 13.8001H102.607C102.885 13.8001 103.114 13.8908 103.295 14.0721C103.487 14.2428 103.583 14.4668 103.583 14.7441C103.583 15.0108 103.487 15.2295 103.295 15.4001C103.114 15.5601 102.885 15.6401 102.607 15.6401H98.1273L98.2713 15.3681V18.4881L98.1433 18.3601H101.887C102.165 18.3601 102.394 18.4508 102.575 18.6321C102.767 18.8028 102.863 19.0268 102.863 19.3041C102.863 19.5708 102.767 19.7895 102.575 19.9601C102.394 20.1201 102.165 20.2001 101.887 20.2001H98.1913L98.2713 20.0721V23.3041L98.1433 23.1601H102.607C102.885 23.1601 103.114 23.2561 103.295 23.4481C103.487 23.6295 103.583 23.8428 103.583 24.0881C103.583 24.3548 103.487 24.5735 103.295 24.7441C103.114 24.9148 102.885 25.0001 102.607 25.0001H97.2473C96.97 25.0001 96.7353 24.9095 96.5433 24.7281C96.362 24.5361 96.2713 24.3015 96.2713 24.0241V14.7761C96.2713 14.4988 96.362 14.2695 96.5433 14.0881C96.7353 13.8961 96.97 13.8001 97.2473 13.8001Z" fill="#0897AB"/>
<path d="M89.8562 41.1601C89.1095 41.1601 88.4375 41.0695 87.8402 40.8881C87.2428 40.6961 86.6722 40.3655 86.1282 39.8961C85.9895 39.7788 85.8828 39.6455 85.8082 39.4961C85.7335 39.3468 85.6962 39.1975 85.6962 39.0481C85.6962 38.8028 85.7815 38.5895 85.9522 38.4081C86.1335 38.2161 86.3575 38.1201 86.6242 38.1201C86.8268 38.1201 87.0082 38.1841 87.1682 38.3121C87.5735 38.6428 87.9735 38.8935 88.3682 39.0641C88.7735 39.2348 89.2695 39.3201 89.8562 39.3201C90.2508 39.3201 90.6135 39.2615 90.9442 39.1441C91.2748 39.0161 91.5415 38.8508 91.7442 38.6481C91.9468 38.4348 92.0482 38.1948 92.0482 37.9281C92.0482 37.6081 91.9522 37.3361 91.7602 37.1121C91.5682 36.8881 91.2748 36.7015 90.8802 36.5521C90.4855 36.3921 89.9842 36.2695 89.3762 36.1841C88.8002 36.0988 88.2935 35.9708 87.8562 35.8001C87.4188 35.6188 87.0508 35.3948 86.7522 35.1281C86.4642 34.8508 86.2455 34.5308 86.0962 34.1681C85.9468 33.7948 85.8722 33.3788 85.8722 32.9201C85.8722 32.2268 86.0482 31.6348 86.4002 31.1441C86.7628 30.6535 87.2482 30.2801 87.8562 30.0241C88.4642 29.7681 89.1362 29.6401 89.8722 29.6401C90.5655 29.6401 91.2055 29.7468 91.7922 29.9601C92.3895 30.1628 92.8748 30.4241 93.2482 30.7441C93.5575 30.9895 93.7122 31.2721 93.7122 31.5921C93.7122 31.8268 93.6215 32.0401 93.4402 32.2321C93.2588 32.4241 93.0455 32.5201 92.8002 32.5201C92.6402 32.5201 92.4962 32.4721 92.3682 32.3761C92.1975 32.2268 91.9682 32.0881 91.6802 31.9601C91.3922 31.8215 91.0882 31.7095 90.7682 31.6241C90.4482 31.5281 90.1495 31.4801 89.8722 31.4801C89.4135 31.4801 89.0242 31.5388 88.7042 31.6561C88.3948 31.7735 88.1602 31.9335 88.0002 32.1361C87.8402 32.3388 87.7602 32.5735 87.7602 32.8401C87.7602 33.1601 87.8508 33.4268 88.0322 33.6401C88.2242 33.8428 88.4962 34.0081 88.8482 34.1361C89.2002 34.2535 89.6215 34.3601 90.1122 34.4561C90.7522 34.5735 91.3122 34.7121 91.7922 34.8721C92.2828 35.0321 92.6882 35.2401 93.0082 35.4961C93.3282 35.7415 93.5682 36.0561 93.7282 36.4401C93.8882 36.8135 93.9682 37.2721 93.9682 37.8161C93.9682 38.5095 93.7762 39.1068 93.3922 39.6081C93.0082 40.1095 92.5015 40.4935 91.8722 40.7601C91.2535 41.0268 90.5815 41.1601 89.8562 41.1601ZM99.595 41.0001C99.2964 41.0001 99.051 40.9095 98.859 40.7281C98.667 40.5361 98.571 40.3015 98.571 40.0241V30.7441H100.651V40.0241C100.651 40.3015 100.55 40.5361 100.347 40.7281C100.155 40.9095 99.9044 41.0001 99.595 41.0001ZM96.059 31.6401C95.7817 31.6401 95.547 31.5548 95.355 31.3841C95.1737 31.2135 95.083 30.9895 95.083 30.7121C95.083 30.4348 95.1737 30.2161 95.355 30.0561C95.547 29.8855 95.7817 29.8001 96.059 29.8001H103.163C103.44 29.8001 103.67 29.8855 103.851 30.0561C104.043 30.2268 104.139 30.4508 104.139 30.7281C104.139 31.0055 104.043 31.2295 103.851 31.4001C103.67 31.5601 103.44 31.6401 103.163 31.6401H96.059ZM115.81 35.4001C115.81 36.2001 115.677 36.9468 115.41 37.6401C115.143 38.3335 114.765 38.9468 114.274 39.4801C113.794 40.0028 113.218 40.4135 112.546 40.7121C111.885 41.0108 111.159 41.1601 110.37 41.1601C109.581 41.1601 108.855 41.0108 108.194 40.7121C107.533 40.4135 106.957 40.0028 106.466 39.4801C105.986 38.9468 105.613 38.3335 105.346 37.6401C105.079 36.9468 104.946 36.2001 104.946 35.4001C104.946 34.6001 105.079 33.8535 105.346 33.1601C105.613 32.4668 105.986 31.8588 106.466 31.3361C106.957 30.8028 107.533 30.3868 108.194 30.0881C108.855 29.7895 109.581 29.6401 110.37 29.6401C111.159 29.6401 111.885 29.7895 112.546 30.0881C113.218 30.3868 113.794 30.8028 114.274 31.3361C114.765 31.8588 115.143 32.4668 115.41 33.1601C115.677 33.8535 115.81 34.6001 115.81 35.4001ZM113.73 35.4001C113.73 34.6855 113.586 34.0401 113.298 33.4641C113.01 32.8775 112.615 32.4135 112.114 32.0721C111.613 31.7308 111.031 31.5601 110.37 31.5601C109.709 31.5601 109.127 31.7308 108.626 32.0721C108.125 32.4135 107.73 32.8721 107.442 33.4481C107.165 34.0241 107.026 34.6748 107.026 35.4001C107.026 36.1148 107.165 36.7655 107.442 37.3521C107.73 37.9281 108.125 38.3868 108.626 38.7281C109.127 39.0695 109.709 39.2401 110.37 39.2401C111.031 39.2401 111.613 39.0695 112.114 38.7281C112.615 38.3868 113.01 37.9281 113.298 37.3521C113.586 36.7655 113.73 36.1148 113.73 35.4001ZM118.799 41.0001C118.5 41.0001 118.233 40.9095 117.999 40.7281C117.764 40.5361 117.647 40.3015 117.647 40.0241V30.7761C117.647 30.4988 117.737 30.2695 117.919 30.0881C118.111 29.8961 118.345 29.8001 118.623 29.8001H123.231C123.785 29.8001 124.303 29.9495 124.783 30.2481C125.273 30.5361 125.668 30.9415 125.967 31.4641C126.265 31.9761 126.415 32.5681 126.415 33.2401C126.415 33.6455 126.329 34.0401 126.159 34.4241C125.999 34.8081 125.775 35.1548 125.487 35.4641C125.209 35.7735 124.895 36.0135 124.543 36.1841L124.559 35.8161C124.857 35.9761 125.103 36.1681 125.295 36.3921C125.497 36.6055 125.652 36.8401 125.759 37.0961C125.876 37.3415 125.945 37.6081 125.967 37.8961C126.009 38.1628 126.036 38.3975 126.047 38.6001C126.068 38.8028 126.1 38.9735 126.143 39.1121C126.196 39.2508 126.292 39.3575 126.431 39.4321C126.665 39.5708 126.809 39.7735 126.863 40.0401C126.927 40.2961 126.868 40.5255 126.687 40.7281C126.569 40.8668 126.42 40.9575 126.239 41.0001C126.057 41.0321 125.876 41.0321 125.695 41.0001C125.513 40.9575 125.364 40.9041 125.247 40.8401C125.065 40.7335 124.884 40.5788 124.703 40.3761C124.521 40.1628 124.372 39.8801 124.255 39.5281C124.148 39.1761 124.095 38.7228 124.095 38.1681C124.095 37.9868 124.063 37.8215 123.999 37.6721C123.935 37.5121 123.844 37.3788 123.727 37.2721C123.609 37.1548 123.46 37.0695 123.279 37.0161C123.097 36.9521 122.884 36.9201 122.639 36.9201H119.407L119.647 36.5521V40.0241C119.647 40.3015 119.572 40.5361 119.423 40.7281C119.273 40.9095 119.065 41.0001 118.799 41.0001ZM119.423 35.2721H123.151C123.343 35.2721 123.529 35.1868 123.711 35.0161C123.892 34.8348 124.041 34.5948 124.159 34.2961C124.276 33.9868 124.335 33.6508 124.335 33.2881C124.335 32.8188 124.207 32.4295 123.951 32.1201C123.705 31.8001 123.439 31.6401 123.151 31.6401H119.455L119.647 31.1281V35.6561L119.423 35.2721ZM129.607 29.8001H134.967C135.244 29.8001 135.474 29.8908 135.655 30.0721C135.847 30.2428 135.943 30.4668 135.943 30.7441C135.943 31.0108 135.847 31.2295 135.655 31.4001C135.474 31.5601 135.244 31.6401 134.967 31.6401H130.487L130.631 31.3681V34.4881L130.503 34.3601H134.247C134.524 34.3601 134.754 34.4508 134.935 34.6321C135.127 34.8028 135.223 35.0268 135.223 35.3041C135.223 35.5708 135.127 35.7895 134.935 35.9601C134.754 36.1201 134.524 36.2001 134.247 36.2001H130.551L130.631 36.0721V39.3041L130.503 39.1601H134.967C135.244 39.1601 135.474 39.2561 135.655 39.4481C135.847 39.6295 135.943 39.8428 135.943 40.0881C135.943 40.3548 135.847 40.5735 135.655 40.7441C135.474 40.9148 135.244 41.0001 134.967 41.0001H129.607C129.33 41.0001 129.095 40.9095 128.903 40.7281C128.722 40.5361 128.631 40.3015 128.631 40.0241V30.7761C128.631 30.4988 128.722 30.2695 128.903 30.0881C129.095 29.8961 129.33 29.8001 129.607 29.8001Z" fill="#FAFAFA"/>
<defs>
<clipPath id="clip0_202_964">
<rect width="51.0336" height="48" fill="white"/>
</clipPath>
<clipPath id="clip1_202_964">
<rect width="24.4536" height="48" fill="white" transform="translate(26.5801 0.00012207)"/>
</clipPath>
</defs>
</svg>
