<svg width="47" height="44" viewBox="0 0 47 44" fill="none" xmlns="http://www.w3.org/2000/svg">
<path d="M40.3684 17.3571C41.1112 17.3571 41.7455 17.6396 42.2711 18.2047C42.7968 18.7697 43.0596 19.4515 43.0596 20.25C43.0596 21.0485 42.7968 21.7303 42.2711 22.2953C41.7455 22.8604 41.1112 23.1429 40.3684 23.1429H40.053L37.6351 38.1044C37.5229 38.7974 37.2146 39.37 36.71 39.822C36.2054 40.274 35.6307 40.5 34.9859 40.5H8.07367C7.4289 40.5 6.85421 40.274 6.34961 39.822C5.845 39.37 5.53663 38.7974 5.4245 38.1044L3.0066 23.1429H2.69122C1.94833 23.1429 1.31407 22.8604 0.788444 22.2953C0.262815 21.7303 0 21.0485 0 20.25C0 19.4515 0.262815 18.7697 0.788444 18.2047C1.31407 17.6396 1.94833 17.3571 2.69122 17.3571H40.3684ZM10.1972 35.4375C10.5617 35.4074 10.8665 35.2379 11.1118 34.929C11.3571 34.6201 11.4657 34.2698 11.4377 33.8781L10.7649 24.4763C10.7369 24.0845 10.5792 23.7568 10.2918 23.4932C10.0045 23.2295 9.67859 23.1127 9.31416 23.1429C8.94972 23.173 8.64485 23.3425 8.39956 23.6514C8.15427 23.9602 8.04564 24.3105 8.07367 24.7023L8.74648 34.1041C8.77451 34.4807 8.91818 34.7972 9.17749 35.0533C9.4368 35.3094 9.74167 35.4375 10.0921 35.4375H10.1972ZM18.8386 33.9911V24.5893C18.8386 24.1975 18.7054 23.8585 18.4391 23.5723C18.1728 23.286 17.8574 23.1429 17.493 23.1429C17.1285 23.1429 16.8131 23.286 16.5468 23.5723C16.2805 23.8585 16.1473 24.1975 16.1473 24.5893V33.9911C16.1473 34.3828 16.2805 34.7218 16.5468 35.0081C16.8131 35.2944 17.1285 35.4375 17.493 35.4375C17.8574 35.4375 18.1728 35.2944 18.4391 35.0081C18.7054 34.7218 18.8386 34.3828 18.8386 33.9911ZM26.9122 33.9911V24.5893C26.9122 24.1975 26.7791 23.8585 26.5128 23.5723C26.2464 23.286 25.9311 23.1429 25.5666 23.1429C25.2022 23.1429 24.8868 23.286 24.6205 23.5723C24.3542 23.8585 24.221 24.1975 24.221 24.5893V33.9911C24.221 34.3828 24.3542 34.7218 24.6205 35.0081C24.8868 35.2944 25.2022 35.4375 25.5666 35.4375C25.9311 35.4375 26.2464 35.2944 26.5128 35.0081C26.7791 34.7218 26.9122 34.3828 26.9122 33.9911ZM34.3131 34.1041L34.9859 24.7023C35.0139 24.3105 34.9053 23.9602 34.66 23.6514C34.4147 23.3425 34.1099 23.173 33.7454 23.1429C33.381 23.1127 33.0551 23.2295 32.7677 23.4932C32.4804 23.7568 32.3227 24.0845 32.2947 24.4763L31.6219 33.8781C31.5938 34.2698 31.7025 34.6201 31.9478 34.929C32.1931 35.2379 32.4979 35.4074 32.8624 35.4375H32.9675C33.3179 35.4375 33.6228 35.3094 33.8821 35.0533C34.1414 34.7972 34.2851 34.4807 34.3131 34.1041ZM10.008 6.59933L8.05264 15.9107H5.27732L7.40086 5.94392C7.66718 4.61802 8.29093 3.53697 9.27211 2.70075C10.2533 1.86454 11.3746 1.44643 12.6361 1.44643H16.1473C16.1473 1.05469 16.2805 0.715681 16.5468 0.429408C16.8131 0.143136 17.1285 0 17.493 0H25.5666C25.9311 0 26.2464 0.143136 26.5128 0.429408C26.7791 0.715681 26.9122 1.05469 26.9122 1.44643H30.4234C31.6849 1.44643 32.8063 1.86454 33.7875 2.70075C34.7686 3.53697 35.3924 4.61802 35.6587 5.94392L37.7823 15.9107H35.0069L33.0516 6.59933C32.8974 5.93638 32.5785 5.39397 32.0949 4.9721C31.6114 4.55022 31.0542 4.33929 30.4234 4.33929H26.9122C26.9122 4.73103 26.7791 5.07003 26.5128 5.35631C26.2464 5.64258 25.9311 5.78571 25.5666 5.78571H17.493C17.1285 5.78571 16.8131 5.64258 16.5468 5.35631C16.2805 5.07003 16.1473 4.73103 16.1473 4.33929H12.6361C12.0054 4.33929 11.4482 4.55022 10.9646 4.9721C10.4811 5.39397 10.1622 5.93638 10.008 6.59933Z" fill="#FAFAFA"/>
</svg>
