<svg width="162" height="130" viewBox="0 0 162 130" fill="none" xmlns="http://www.w3.org/2000/svg">
<path d="M154.601 36.071C147.97 42.4923 137.923 47.6514 132.154 53.7812C127.08 59.2131 123.996 65.5662 120.839 71.8206C119.984 73.5353 119.193 75.2441 118.401 76.953C111.287 92.437 104.343 109.065 88.8356 119.587C75.0536 128.893 55.7208 131.757 39.2635 127.391C22.8062 123.026 9.64082 111.813 3.93255 98.2673C-0.558465 87.561 -0.440963 75.2631 5.03352 64.6258C10.566 53.9304 21.6008 45.0929 34.8521 41.6377C50.2701 37.6105 68.4237 40.4463 81.1522 32.0831C89.3944 26.6183 92.4236 18.3193 98.6424 11.5673C102.382 7.47317 107.187 3.91214 112.913 2.05784C125.477 -1.96581 144.158 1.76972 153.774 8.93791C158 12.0754 160.719 16.7251 161.106 21.5404C161.707 27.2848 158.844 31.9297 154.601 36.071Z" fill="url(#paint0_linear_202_1054)"/>
<defs>
<linearGradient id="paint0_linear_202_1054" x1="153.017" y1="72.8454" x2="3.19184" y2="8.31936" gradientUnits="userSpaceOnUse">
<stop offset="2.54313e-07" stop-color="#1A1C4B"/>
<stop offset="1" stop-color="#0897AB"/>
</linearGradient>
</defs>
</svg>
