<svg width="548" height="348" viewBox="0 0 548 348" fill="none" xmlns="http://www.w3.org/2000/svg">
<path d="M1.12564 251.415C0.223957 200.592 1.80191 147.078 16.2289 98.946C29.5289 54.9992 62.6659 3.27941 101.439 0.58879C126.46 -1.20496 138.859 39.7523 153.736 59.4836C248.639 186.541 395.164 104.028 504.043 182.953C523.204 196.705 540.336 218.828 545.971 247.528C551.832 277.424 544.168 309.114 533.573 336.618C508.551 401.193 469.553 449.325 429.879 497.756C394.938 540.208 334.525 584.454 330.468 654.709C328.89 683.11 345.345 707.326 349.854 733.933C361.35 803.59 304.544 848.733 259.685 854.114C207.612 860.392 152.384 832.589 116.993 779.973C70.7811 711.212 57.0304 560.238 -26.1505 548.579C-34.2657 547.383 -43.2826 547.981 -49.8198 541.703C-59.2875 532.734 -59.9638 513.302 -54.7791 499.55C-47.1147 478.623 -33.5894 463.675 -23.8962 444.542C3.8307 388.636 2.25276 319.577 1.12564 251.415Z" fill="url(#paint0_linear_202_527)"/>
<defs>
<linearGradient id="paint0_linear_202_527" x1="-11.0049" y1="331.7" x2="617.872" y2="511.907" gradientUnits="userSpaceOnUse">
<stop offset="2.54313e-07" stop-color="#1A1C4B"/>
<stop offset="1" stop-color="#0897AB"/>
</linearGradient>
</defs>
</svg>
