<svg width="210" height="84" viewBox="0 0 210 84" fill="none" xmlns="http://www.w3.org/2000/svg">
<rect x="1.73389" y="1" width="207.174" height="82" fill="#0A0A12" stroke="#0897AB" stroke-width="2"/>
<g clip-path="url(#clip0_202_717)">
<path d="M125.559 35.691H141.831V48.575H125.559V35.691ZM120.631 47.477C120.631 48.34 120.631 50.227 121.78 51.288C122.806 52.232 124.532 52.269 125.893 52.269H141.502C142.859 52.269 144.585 52.232 145.612 51.288C146.764 50.227 146.764 48.341 146.764 47.477V36.791C146.764 35.927 146.764 34.041 145.612 32.981C144.585 32.037 142.858 32 141.501 32H125.892C124.531 32 122.806 32.037 121.779 32.981C120.63 34.042 120.63 35.927 120.63 36.791L120.631 47.477Z" fill="#F9D004"/>
<path d="M31.0645 32V52.269H35.9926V43.548H51.4412V52.269H56.3745V32H51.4412V39.856H35.9926V32H31.0645Z" fill="#F9D004"/>
<path d="M71.2103 44.178L75.9763 35.927L80.5781 44.178H71.2103ZM73.8009 32L61.8037 52.269H66.7726L69.198 47.869H82.6762L85.1821 52.269H90.7262L78.5648 32H73.8009Z" fill="#F9D004"/>
<path d="M105.505 35.691H115.24V32H90.8359V35.691H100.573V52.269H105.505V35.691Z" fill="#F9D004"/>
<path d="M170.259 35.455C170.463 35.455 171.285 35.455 171.695 35.771C172.23 36.163 172.23 36.752 172.23 37.066V39.542C172.23 39.857 172.23 40.446 171.695 40.839C171.325 41.073 170.67 41.152 170.339 41.152H159.04V35.455H170.259ZM154.113 32V52.269H159.041V44.608H163.684L172.23 52.269H179.298L169.517 44.608H172.395C173.338 44.608 175.023 44.531 176.008 43.705C176.585 43.235 177.161 42.331 177.161 40.76V35.927C177.161 35.103 177.076 33.729 175.887 32.825C174.903 32.077 173.381 32 172.395 32H154.113Z" fill="#F9D004"/>
</g>
<defs>
<clipPath id="clip0_202_717">
<rect width="148.233" height="20.269" fill="white" transform="translate(31.0645 32)"/>
</clipPath>
</defs>
</svg>
